<?xml version="1.0" encoding="iso-8859-1"?>
<!-- Uploaded to: SVG Repo, www.svgrepo.com, Generator: SVG Repo Mixer Tools -->
<svg fill="#000000" height="800px" width="800px" version="1.1" id="Capa_1" xmlns="http://www.w3.org/2000/svg" xmlns:xlink="http://www.w3.org/1999/xlink" 
	 viewBox="0 0 490.111 490.111" xml:space="preserve">
<g>
	<g>
		<path d="M112.779,299.925c-26.4,26.4-30.1,65.4-8.3,87.2s60.8,18.1,87.2-8.3s30.1-65.4,8.3-87.2
			C178.079,269.825,139.079,273.525,112.779,299.925z M163.179,350.325c-10.7,10.7-24.3,14.5-30.3,8.4c-6.1-6.1-2.3-19.6,8.4-30.3
			s24.3-14.5,30.3-8.4C177.579,326.025,173.879,339.625,163.179,350.325z"/>
		<path d="M483.479,80.125l-73.9-73.9c-8.3-8.3-20.8-8.3-29.1,0c-8.3,8.3-8.3,20.8,0,29.1l22.8,22.8l-18.7,18.8l-22.8-22.8
			c-8.3-8.3-20.8-8.3-29.1,0c-8.3,8.3-8.3,20.8,0,29.1l22.7,22.7l-70.2,69.7c-76.9-40.9-214.6,35.6-248.9,69.9
			c-52,51-46.8,140.4,10.4,197.7c43.8,43.8,136.5,73.6,198.7,11.4c43.2-43.2,108.5-180.3,69.3-250.3l69.9-69.3l22.1,22.1
			c13.1,11.4,25,4.2,29.1,0c8.3-8.3,8.3-20.8,0-29.1l-22-22l18.8-18.7l21.9,21.9c13,11.5,25,4.2,29.1,0
			C491.879,101.025,491.879,88.525,483.479,80.125z M216.179,425.525c-23.8,23.8-87.6,42.4-140.4-10.4
			c-41.6-41.6-45.8-105.1-10.4-140.4c27-28.1,163.5-98.1,208.1-58.3C312.779,251.825,256.679,385.025,216.179,425.525z"/>
	</g>
</g>
</svg>